# xmcd
#
# Track frame offsets:
#	150
#	14115
#	27612
#	35251
#	45683
#	56452
#	68598
#	85530
#	99189
#	113256
#	131118
#	148308
#	159241
#	171664
#	185145
#	197188
#	209858
#	221492
#	238123
#	251028
#
# Disc length: 3555 seconds
#
# Revision: 1
# Processed by: cddbd v1.5.2PL0 Copyright (c) Steve Scherf et al.
# Submitted via: EZCDAudioConverter 1.3.4.1
#
DISCID=2c0de114
DTITLE=Various Artist - Back To Perú V2 1/2
DYEAR=2009
DGENRE=
TTITLE0=Los Juniors - Tercera Piedra En El Sol 
TTITLE1=Los Drag's - Dámelo Mi Nena
TTITLE2=Los Shain's - Guau Guau A Go-Go
TTITLE3=Los Saicos - Intensamente
TTITLE4=Kela Gates - Loca Por Un Loco
TTITLE5=Los Holy's - Sueño Sicodélico
TTITLE6=Los Datsun's - En El Sol
TTITLE7=Los Teddy's - Efectos
TTITLE8=Los Far Fen - Camina, No Vueles
TTITLE9=Beautiful Days - Full Of Fear
TTITLE10=Los Comandos - Más De Ti
TTITLE11=Same People - Soñando Contigo
TTITLE12=El Opio - Pusher
TTITLE13=Los Zheros - Cuarto Oscuro
TTITLE14=Los Jaguar's - Tormenta En El Mar De La Tranquilidad
TTITLE15=Telegraph Ave - Let Me Start
TTITLE16=The Ringers - Down On My Knees Again
TTITLE17=We All Together - Rock Of All Ages
TTITLE18=Monik - Maybe I Know
TTITLE19=Fe 59 - Estoy Brillando
EXTD=
EXTT0=
EXTT1=
EXTT2=
EXTT3=
EXTT4=
EXTT5=
EXTT6=
EXTT7=
EXTT8=
EXTT9=
EXTT10=
EXTT11=
EXTT12=
EXTT13=
EXTT14=
EXTT15=
EXTT16=
EXTT17=
EXTT18=
EXTT19=
PLAYORDER=
